<?xml version="1.0" standalone="no"?>
<!DOCTYPE svg PUBLIC "-//W3C//DTD SVG 20010904//EN"
 "http://www.w3.org/TR/2001/REC-SVG-20010904/DTD/svg10.dtd">
<svg version="1.0" xmlns="http://www.w3.org/2000/svg"
 width="770.000000pt" height="150.000000pt" viewBox="0 0 770.000000 150.000000"
 preserveAspectRatio="xMidYMid meet">

<g transform="translate(0.000000,150.000000) scale(0.100000,-0.100000)"
fill="#000000" stroke="none">
<path d="M283 1284 c-78 -53 -152 -140 -190 -221 -18 -39 -33 -78 -33 -86 0
-8 -7 -31 -15 -50 -19 -45 -19 -109 -1 -162 8 -22 20 -60 27 -85 19 -61 97
-178 150 -223 59 -51 130 -91 208 -116 90 -29 252 -29 342 0 116 38 227 115
291 203 39 54 35 63 -10 20 -97 -94 -196 -128 -367 -129 l-120 0 -87 43 c-116
56 -208 146 -263 258 -39 77 -40 82 -40 184 0 166 36 262 130 348 65 60 54 67
-22 16z"/>
<path d="M845 1176 c-96 -43 -147 -127 -148 -241 0 -78 21 -133 73 -197 54
-65 178 -106 258 -85 57 15 53 27 -8 27 -132 0 -237 107 -248 253 -7 105 26
172 117 232 22 15 41 29 41 31 0 10 -40 1 -85 -20z"/>
<path d="M223 220 c-60 -36 -80 -108 -42 -149 17 -18 30 -21 67 -19 58 4 71
28 14 28 -48 0 -57 15 -42 71 13 46 50 70 95 61 27 -5 29 -4 16 11 -18 23 -69
21 -108 -3z"/>
<path d="M399 225 c-57 -31 -80 -123 -41 -158 27 -25 122 -21 122 4 0 5 -18 9
-40 9 -51 0 -63 20 -45 73 7 21 15 40 17 41 17 15 49 24 66 19 16 -4 22 -1 22
11 0 21 -64 21 -101 1z"/>
<path d="M935 230 c-3 -5 -1 -11 4 -11 6 -1 17 -2 23 -3 19 -2 21 -29 4 -92
-16 -61 -14 -77 11 -72 16 3 43 75 43 114 0 19 36 63 46 57 10 -7 24 -2 24 7
0 6 -31 10 -74 10 -41 0 -78 -4 -81 -10z"/>
</g>
</svg>
